<svg width="1440" height="1799" viewBox="0 0 1440 1799" fill="none" xmlns="http://www.w3.org/2000/svg">
<g clip-path="url(#clip0_2_174)">
<rect width="1440" height="1799" fill="white"/>
<path d="M318 67.5C318 214.132 199.132 333 52.5 333C-94.1316 333 -213 214.132 -213 67.5C-213 -79.1316 -94.1316 -198 52.5 -198C199.132 -198 318 -79.1316 318 67.5ZM-166.782 67.5C-166.782 188.606 -68.6059 286.782 52.5 286.782C173.606 286.782 271.782 188.606 271.782 67.5C271.782 -53.6059 173.606 -151.782 52.5 -151.782C-68.6059 -151.782 -166.782 -53.6059 -166.782 67.5Z" fill="#1E1E1E"/>
<path d="M232 1384.5C232 1531.13 113.132 1650 -33.5 1650C-180.132 1650 -299 1531.13 -299 1384.5C-299 1237.87 -180.132 1119 -33.5 1119C113.132 1119 232 1237.87 232 1384.5ZM-252.782 1384.5C-252.782 1505.61 -154.606 1603.78 -33.5 1603.78C87.6059 1603.78 185.782 1505.61 185.782 1384.5C185.782 1263.39 87.6059 1165.22 -33.5 1165.22C-154.606 1165.22 -252.782 1263.39 -252.782 1384.5Z" fill="#1E1E1E"/>
</g>
<defs>
<clipPath id="clip0_2_174">
<rect width="1440" height="1799" fill="white"/>
</clipPath>
</defs>
</svg>
